<svg width="28" height="28" viewBox="0 0 28 28" fill="none" xmlns="http://www.w3.org/2000/svg">
<rect width="28" height="28" fill="white"/>
<mask id="mask0" mask-type="alpha" maskUnits="userSpaceOnUse" x="0" y="0" width="28" height="28">
<rect width="28" height="28" fill="white"/>
</mask>
<g mask="url(#mask0)">
<path opacity="0.5" d="M27.8493 23.1794H24.2869L23.3627 20.4785H18.4095L17.4853 23.1794H14.0127L18.9479 9.81836H22.9141L27.8493 23.1794ZM22.5282 18.0288L20.8861 13.2371L19.244 18.0288H22.5282Z" fill="#00BC87"/>
<path d="M19.0572 23.0412H14.3074L13.0751 19.44H6.47085L5.23854 23.0412H0.608398L7.1887 5.22656H12.4769L19.0572 23.0412ZM11.9624 16.1738L9.77297 9.78492L7.58352 16.1738H11.9624Z" fill="#00BC87"/>
<path fill-rule="evenodd" clip-rule="evenodd" d="M20.8155 24.2649H13.4315L12.1992 20.6637H7.34628L6.11397 24.2649H-1.15039L6.33498 4H13.3302L20.8155 24.2649ZM6.47064 19.4386H13.0749L14.3072 23.0398H19.057L12.4767 5.22513H7.18849L0.608183 23.0398H5.23833L6.47064 19.4386ZM9.77275 9.78349L7.58331 16.1724H11.9622L9.77275 9.78349ZM9.77275 13.5626L9.29823 14.9472H10.2473L9.77275 13.5626Z" fill="white"/>
</g>
</svg>
