<?xml version="1.0" encoding="utf-8"?>
<!-- Generator: Adobe Illustrator 24.2.1, SVG Export Plug-In . SVG Version: 6.00 Build 0)  -->
<svg version="1.1" id="Capa_1" xmlns="http://www.w3.org/2000/svg" xmlns:xlink="http://www.w3.org/1999/xlink" x="0px" y="0px"
	 viewBox="0 0 28 28" style="enable-background:new 0 0 28 28;" xml:space="preserve">
<style type="text/css">
	.st0{fill:#FFFFFF;}
	.st1{fill:#E74C3C;}
</style>
<rect class="st0" width="28" height="28"/>
<path class="st1" d="M27.2,53.2H0l10.2-14.1l6.6,8.6l3.2-4.1L27.2,53.2z"/>
<path id="image_x5F_picture_3_" class="st1" d="M0.2,0.2c0,8.1,0,19.5,0,27.6c12.4,0,16.9,0,27.6,0V0.2C14.7,0.2,24.3,0.2,0.2,0.2z
	 M25.1,25H2.9V2.9h22.1V25z M23.6,20.5H4.4l7.3-9.9l4.6,6.1l2.2-3L23.6,20.5z M17.2,8.4c0-0.9,0.7-1.6,1.6-1.6
	c0.9,0,1.6,0.7,1.6,1.6S19.7,10,18.8,10C17.9,10,17.2,9.3,17.2,8.4z"/>
</svg>
